<mxfile host="app.diagrams.net" modified="2024-01-30T10:50:29.679Z" agent="Mozilla/5.0 (Macintosh; Intel Mac OS X 10.15; rv:122.0) Gecko/20100101 Firefox/122.0" etag="1EVkhYznID8apULtop_r" version="23.0.2" type="github">
  <diagram name="Page-1" id="fcib-oByc-Cu-DMk4tVU">
    <mxGraphModel dx="1175" dy="860" grid="0" gridSize="10" guides="1" tooltips="1" connect="1" arrows="1" fold="1" page="0" pageScale="1" pageWidth="850" pageHeight="1100" math="0" shadow="0">
      <root>
        <mxCell id="0" />
        <mxCell id="1" parent="0" />
      </root>
    </mxGraphModel>
  </diagram>
</mxfile>
